<svg xmlns="http://www.w3.org/2000/svg" width="512" height="512"><rect id="backgroundrect" width="100%" height="100%" x="0" y="0" fill="none" stroke="none"/><g class="currentLayer" style=""><title>Layer 1</title><path d="M220.1 48C249.1 182.6 111 179.9 112 315.4c.8 111 118.4 148.6 144.5 148.6 26.1 0 134.8-23.6 143.1-148.6 7.1-106.4-81.7-208-179.5-267.4zm74.3 354.7c-10.2 38.9-66 39-76.4.1-1.5-5.6-2.4-11.5-2.4-17.5 0-41 40.6-88.3 40.6-88.3s40.4 47.3 40.4 88.3c.1 6-.7 11.8-2.2 17.4z" id="svg_1" class="selected" fill="#ffffff" fill-opacity="1"/></g></svg>